<?xml version="1.0" encoding="utf-8"?>
<!-- Generator: Adobe Illustrator 16.0.0, SVG Export Plug-In . SVG Version: 6.00 Build 0)  -->
<!DOCTYPE svg PUBLIC "-//W3C//DTD SVG 1.1//EN" "http://www.w3.org/Graphics/SVG/1.1/DTD/svg11.dtd">
<svg version="1.1" id="CFS_Graphics" xmlns="http://www.w3.org/2000/svg" xmlns:xlink="http://www.w3.org/1999/xlink" x="0px"
	 y="0px" width="400px" height="115px" viewBox="0 0 400 115" enable-background="new 0 0 400 115" xml:space="preserve">
<g>
	<path fill="#017991" d="M33.247,22.922h19.107L67.245,85H57.198L53.52,72.172H31.452L28.223,85H18.176L33.247,22.922z
		 M33.605,62.842h18.031L44.37,31.715h-3.319L33.605,62.842z"/>
	<path fill="#017991" d="M82.945,65.982V85H72.808V22.922h21.619c13.366,0,20.992,7.088,20.992,20.902s-7.626,22.158-20.992,22.158
		H82.945z M94.427,56.742c7.356,0,10.675-5.383,10.675-12.918c0-7.445-3.319-11.662-10.675-11.662H82.945v24.58H94.427z"/>
	<path fill="#017991" d="M109.005,75.939h5.921V85h-5.921V75.939z"/>
	<path fill="#017991" d="M144.636,63.201h-11.482V85h-9.958V22.922h22.337c13.456,0,20.812,6.012,20.812,19.826
		c0,9.15-3.319,14.891-9.868,17.941L166.435,85H155.4l-8.791-21.889L144.636,63.201z M145.532,32.162h-12.379V54.23h12.559
		c6.907,0,10.316-4.934,10.316-11.303C156.028,36.109,151.991,32.162,145.532,32.162z"/>
	<path fill="#017991" d="M211.288,62.035c0,16.506-6.189,23.951-21.529,23.951c-4.755,0-15.879-1.076-15.879-1.076V21.576h9.778
		v20.006c0,0,5.562-2.332,10.586-2.332C205.727,39.25,211.288,47.322,211.288,62.035z M201.33,62.035
		c0-8.701-2.69-13.994-8.342-13.994c-4.845,0-9.33,1.525-9.33,1.525v27.449c0,0,4.306,0.449,6.101,0.449
		C199.357,77.465,201.33,70.826,201.33,62.035z"/>
	<path fill="#017991" d="M215.684,85v-3.051l20.991-21.439c6.908-6.998,11.572-12.559,11.572-20.453
		c0-9.061-5.741-12.111-14.801-12.111c-6.19,0-16.865,2.334-16.865,2.334l-0.448-3.051c0,0,9.957-2.332,17.402-2.332
		c10.854,0,18.121,3.947,18.121,15.16c0,9.598-5.831,15.879-11.482,21.529L220.08,81.859h33.46V85H215.684z"/>
	<path fill="#017991" d="M298.036,56.832c0,22.875-8.522,28.975-20.363,28.975c-11.842,0-20.453-6.1-20.453-29.154
		c0-25.656,8.343-31.756,20.363-31.756C290.142,24.896,298.036,31.176,298.036,56.832z M260.628,56.832
		c0,21.17,6.818,25.926,17.045,25.926s16.954-4.756,16.954-26.105c0-22.965-5.921-28.707-17.044-28.707
		C266.729,27.945,260.628,33.418,260.628,56.832z"/>
	<path fill="#017991" d="M323.335,25.793h3.229V85h-3.229V29.291l-16.506,11.305l-1.525-2.602L323.335,25.793z"/>
	<path fill="#017991" d="M372.942,73.158H343.16v-2.691l19.377-44.674h3.498l-19.018,44.314h25.925V48.668h3.229v21.439h8.253v3.051
		h-8.253V85h-3.229V73.158z"/>
</g>
<g id="Microphone_1_" display="none">
	<path display="inline" fill="#017991" d="M210.561,153.24v6.721c0,4.682-3.957,8.64-8.64,8.64l0,0h-3.841
		c-4.684,0-8.64-3.958-8.64-8.64v-6.721h-3.841v6.721c0,6.765,5.716,12.479,12.48,12.479v6.72h-8.159V183h20.16v-3.841h-8.16v-6.72
		l0,0c6.765,0,12.48-5.714,12.48-12.479v-6.721H210.561z"/>
	<path display="inline" fill="#017991" d="M198.08,165.721h3.841c2.742,0,5.177-2.153,5.666-4.802h-5.707V159h5.8v-1.92h-5.8v-1.921
		h5.8v-1.919h-5.8v-1.92h5.8v-1.921h-5.8v-1.919h5.8v-1.92h-5.8v-1.921h5.8v-1.919h-5.8v-1.92h5.707
		c-0.488-2.648-2.924-4.801-5.666-4.801h-3.841c-3.067,0-5.76,2.691-5.76,5.76v19.201
		C192.32,163.028,195.012,165.721,198.08,165.721z"/>
</g>
<g>
</g>
<g>
</g>
<g>
</g>
<g>
</g>
<g>
</g>
<g>
</g>
<g>
</g>
<g>
</g>
<g>
</g>
<g>
</g>
<g>
</g>
<g>
</g>
<g>
</g>
<g>
</g>
<g>
</g>
</svg>
