<?xml version="1.0" encoding="utf-8"?>
<!-- Generator: Adobe Illustrator 16.0.0, SVG Export Plug-In . SVG Version: 6.00 Build 0)  -->
<!DOCTYPE svg PUBLIC "-//W3C//DTD SVG 1.1//EN" "http://www.w3.org/Graphics/SVG/1.1/DTD/svg11.dtd">
<svg version="1.1" id="CFS_Graphics" xmlns="http://www.w3.org/2000/svg" xmlns:xlink="http://www.w3.org/1999/xlink" x="0px"
	 y="0px" width="48px" height="48px" viewBox="0 0 48 48" enable-background="new 0 0 48 48" xml:space="preserve">
<g id="Microphone_1_">
	<path fill="#017991" d="M34.561,18.24v6.721c0,4.682-3.957,8.64-8.64,8.64l0,0H22.08c-4.684,0-8.64-3.958-8.64-8.64V18.24H9.599
		v6.721c0,6.765,5.716,12.479,12.48,12.479v6.72H13.92V48h20.16v-3.841h-8.16v-6.72l0,0c6.765,0,12.48-5.714,12.48-12.479V18.24
		H34.561z"/>
	<path fill="#017991" d="M22.08,30.721h3.841c2.742,0,5.177-2.153,5.666-4.802h-5.707V24h5.8v-1.92h-5.8v-1.921h5.8V18.24h-5.8
		v-1.92h5.8v-1.921h-5.8V12.48h5.8v-1.92h-5.8V8.64h5.8V6.721h-5.8v-1.92h5.707C31.098,2.152,28.662,0,25.92,0H22.08
		c-3.067,0-5.76,2.691-5.76,5.76v19.201C16.32,28.028,19.012,30.721,22.08,30.721z"/>
</g>
<g>
</g>
<g>
</g>
<g>
</g>
<g>
</g>
<g>
</g>
<g>
</g>
<g>
</g>
<g>
</g>
<g>
</g>
<g>
</g>
<g>
</g>
<g>
</g>
<g>
</g>
<g>
</g>
<g>
</g>
</svg>
